<svg xmlns="http://www.w3.org/2000/svg" viewBox="0 0 256 256" role="img" aria-labelledby="title desc">
  <title id="title">ProductFlow mark</title>
  <desc id="desc">A product card connected to copy, image and AI workflow nodes.</desc>
  <defs>
    <linearGradient id="bg" x1="32" y1="24" x2="224" y2="232" gradientUnits="userSpaceOnUse">
      <stop offset="0" stop-color="#F8FAFC"/>
      <stop offset="1" stop-color="#EEF2FF"/>
    </linearGradient>
    <linearGradient id="accent" x1="72" y1="68" x2="190" y2="190" gradientUnits="userSpaceOnUse">
      <stop offset="0" stop-color="#2563EB"/>
      <stop offset="0.55" stop-color="#7C3AED"/>
      <stop offset="1" stop-color="#0F172A"/>
    </linearGradient>
    <filter id="shadow" x="-20%" y="-20%" width="140%" height="150%" color-interpolation-filters="sRGB">
      <feDropShadow dx="0" dy="10" stdDeviation="14" flood-color="#1E1B4B" flood-opacity="0.16"/>
    </filter>
  </defs>
  <rect width="256" height="256" rx="56" fill="url(#bg)"/>
  <path d="M76 92 C52 92 44 112 44 128 C44 144 52 164 76 164" fill="none" stroke="#A5B4FC" stroke-width="12" stroke-linecap="round"/>
  <path d="M180 92 C204 92 212 112 212 128 C212 144 204 164 180 164" fill="none" stroke="#A78BFA" stroke-width="12" stroke-linecap="round"/>
  <g filter="url(#shadow)">
    <rect x="75" y="70" width="106" height="116" rx="26" fill="white"/>
    <path d="M92 104h72M92 127h48M92 150h62" stroke="#CBD5E1" stroke-width="10" stroke-linecap="round"/>
    <path d="M101 76h54c12 0 20 9 20 20v19H81V96c0-11 9-20 20-20Z" fill="url(#accent)"/>
    <circle cx="114" cy="96" r="8" fill="#F8FAFC" opacity="0.95"/>
    <circle cx="142" cy="96" r="8" fill="#F8FAFC" opacity="0.95"/>
  </g>
  <circle cx="45" cy="128" r="17" fill="#2563EB"/>
  <circle cx="211" cy="128" r="17" fill="#7C3AED"/>
  <circle cx="128" cy="211" r="17" fill="#0F172A"/>
  <path d="M128 186v25" stroke="#A5B4FC" stroke-width="12" stroke-linecap="round"/>
  <path d="M199 55l6 16 16 6-16 6-6 16-6-16-16-6 16-6 6-16Z" fill="#F59E0B"/>
</svg>
